<svg xmlns="http://www.w3.org/2000/svg" viewBox="0 0 185 185" width="185" height="185">
	<style>
		tspan { white-space:pre }
	</style>
	<path id="Text layer 2" fill="#0a296a" d="M3.22 101L3.22 68.19L11.68 68.19L11.68 101L3.22 101ZM19.96 101L19.96 68.19L28.42 68.19L28.42 101L19.96 101ZM32.79 74.59L32.79 68.19L63.03 68.19L63.03 74.59L52.15 74.59L52.15 101L43.69 101L43.69 74.59L32.79 74.59ZM67.4 101L67.4 68.19L75.86 68.19L75.86 101L67.4 101ZM106.12 101L104.05 95.02L90.82 95.02L88.74 101L80.23 101L92.38 68.19L102.47 68.19L114.62 101L106.12 101ZM97.44 75.89L92.93 88.94L101.92 88.94L97.44 75.89ZM118.97 101L118.97 68.19L128.42 68.19L140.35 90.69L140.35 68.19L148.37 68.19L148.37 101L138.92 101L126.99 78.5L126.99 101L118.97 101ZM179.46 69.23L179.46 76.17Q176.76 74.96 174.19 74.35Q171.62 73.73 169.33 73.73Q166.3 73.73 164.85 74.57Q163.4 75.4 163.4 77.16Q163.4 78.48 164.37 79.23Q165.36 79.95 167.93 80.48L171.53 81.2Q177 82.3 179.31 84.54Q181.62 86.78 181.62 90.91Q181.62 96.34 178.39 99Q175.18 101.64 168.56 101.64Q165.44 101.64 162.3 101.04Q159.16 100.45 156.02 99.29L156.02 92.15Q159.16 93.81 162.08 94.67Q165.03 95.51 167.75 95.51Q170.52 95.51 171.99 94.58Q173.46 93.66 173.46 91.95Q173.46 90.41 172.45 89.57Q171.46 88.74 168.48 88.08L165.2 87.35Q160.28 86.3 157.99 83.99Q155.73 81.69 155.73 77.77Q155.73 72.88 158.9 70.24Q162.06 67.6 167.99 67.6Q170.7 67.6 173.55 68.02Q176.41 68.41 179.46 69.23Z" />
</svg>