<svg xmlns="http://www.w3.org/2000/svg" viewBox="0 0 185 185" width="185" height="185">
	<style>
		tspan { white-space:pre }
	</style>
	<path id="Text layer 2" fill="#0a296a" d="M3.06 63L12.72 63L12.72 105L3.06 105L3.06 63ZM18.78 63L28.44 63L28.44 105L18.78 105L18.78 63ZM62.22 72.12L52.08 72.12L52.08 105L42.36 105L42.36 72.12L32.22 72.12L32.22 63L62.22 63L62.22 72.12ZM66 63L75.66 63L75.66 105L66 105L66 63ZM115.26 105L105.54 105L103.26 96.24L90.66 96.24L88.44 105L78.96 105L90.48 63L103.86 63L115.26 105ZM101.1 87.66L96.96 71.7L92.88 87.66L101.1 87.66ZM141.54 63L150.84 63L150.84 105L140.64 105L127.8 78.24L127.8 105L118.56 105L118.56 63L129.24 63L141.54 88.98L141.54 63ZM156.24 103.44L156.24 94.86Q159.9 97.26 166.02 97.26Q171.6 97.26 171.6 93.12Q171.6 91.02 170.46 90Q169.38 88.92 166.2 87.54L164.82 87Q159.96 85.02 157.86 81.96Q155.82 78.84 155.82 74.16Q155.82 68.52 159.48 65.4Q163.2 62.28 169.8 62.28Q175.8 62.28 180.06 64.02L180.06 72.42Q176.22 70.8 170.82 70.8Q165.72 70.8 165.72 74.4Q165.72 76.14 166.98 77.1Q168.3 78 172.8 80.04L174.24 80.64Q178.56 82.5 180.36 85.56Q182.16 88.56 182.16 92.82Q182.16 98.94 178.26 102.36Q174.36 105.72 167.34 105.72Q160.68 105.72 156.24 103.44Z" />
</svg>