<svg xmlns="http://www.w3.org/2000/svg" viewBox="0 0 4000 676" width="1000" height="169">
	<style>
		tspan { white-space:pre }
	</style>
	<path id="Text layer 1" fill="#ffffff" d="M68.25 95L189 95L189 620L68.25 620L68.25 95ZM264.75 95L385.5 95L385.5 620L264.75 620L264.75 95ZM807.75 209L681 209L681 620L559.5 620L559.5 209L432.75 209L432.75 95L807.75 95L807.75 209ZM855 95L975.75 95L975.75 620L855 620L855 95ZM1470.75 620L1349.25 620L1320.75 510.5L1163.25 510.5L1135.5 620L1017 620L1161 95L1328.25 95L1470.75 620ZM1293.75 403.25L1242 203.75L1191 403.25L1293.75 403.25ZM1799.25 95L1915.5 95L1915.5 620L1788 620L1627.5 285.5L1627.5 620L1512 620L1512 95L1645.5 95L1799.25 419.75L1799.25 95ZM1983 600.5L1983 493.25Q2028.75 523.25 2105.25 523.25Q2175 523.25 2175 471.5Q2175 445.25 2160.75 432.5Q2147.25 419 2107.5 401.75L2090.25 395Q2029.5 370.25 2003.25 332Q1977.75 293 1977.75 234.5Q1977.75 164 2023.5 125Q2070 86 2152.5 86Q2227.5 86 2280.75 107.75L2280.75 212.75Q2232.75 192.5 2165.25 192.5Q2101.5 192.5 2101.5 237.5Q2101.5 259.25 2117.25 271.25Q2133.75 282.5 2190 308L2208 315.5Q2262 338.75 2284.5 377Q2307 414.5 2307 467.75Q2307 544.25 2258.25 587Q2209.5 629 2121.75 629Q2038.5 629 1983 600.5ZM2859.75 493.25L2859.75 606.5Q2817.75 629 2738.25 629Q2617.5 629 2559 563.75Q2500.5 497.75 2500.5 364.25Q2500.5 223.25 2559.75 155Q2619.75 86 2747.25 86Q2809.5 86 2859 104.75L2859 218Q2812.5 200 2766.75 200Q2695.5 200 2661.75 236Q2628.75 271.25 2628.75 357.5Q2628.75 441.5 2661.75 478.25Q2694.75 515 2766 515Q2810.25 515 2859.75 493.25ZM3252.75 366.5L3252.75 620L3144 620L3144 407.75Q3144 359.75 3132 342.5Q3120.75 325.25 3090 325.25Q3057 325.25 3041.25 348.5Q3026.25 371.75 3026.25 420.5L3026.25 620L2917.5 620L2917.5 57.5L3026.25 57.5L3026.25 288.5L3027.75 288.5Q3059.25 230.75 3136.5 230.75Q3252.75 230.75 3252.75 366.5ZM3516 479.75L3516 457.25Q3497.25 453.5 3473.25 453.5Q3439.5 453.5 3425.25 463.25Q3411.75 473 3411.75 495.5Q3411.75 541.25 3459 541.25Q3516 541.25 3516 479.75ZM3624.75 377.75L3624.75 620L3522.75 620L3522.75 567.5L3521.25 567.5Q3494.25 626.75 3417 626.75Q3362.25 626.75 3331.5 596.75Q3301.5 566 3301.5 508.25Q3301.5 447.5 3339 418.25Q3376.5 389 3455.25 389Q3489.75 389 3516 394.25L3516 376.25Q3516 347 3501 334.25Q3486 321.5 3448.5 321.5Q3386.25 321.5 3333.75 349.25L3333.75 257Q3390.75 229.25 3470.25 229.25Q3553.5 229.25 3588.75 263.75Q3624.75 297.5 3624.75 377.75ZM3829.5 237.5L3921 237.5L3921 332L3829.5 332L3829.5 468.5Q3829.5 503 3840 516.5Q3851.25 530 3881.25 530Q3903.75 530 3921.75 521L3921.75 614.75Q3889.5 628.25 3843.75 628.25Q3777.75 628.25 3749.25 599Q3720.75 569.75 3720.75 506.75L3720.75 332L3663.75 332L3663.75 237.5L3720.75 237.5L3720.75 156.5L3829.5 119L3829.5 237.5Z" />
</svg>