<svg xmlns="http://www.w3.org/2000/svg" viewBox="0 0 520 520" width="520" height="520">
	<style>
		tspan { white-space:pre }
	</style>
	<path id="Text layer 1" fill="#000000" d="M14.83 214.56L14.83 273L25.24 273L25.24 214.56L14.83 214.56ZM38.63 214.56L38.63 273L49.04 273L49.04 214.56L38.63 214.56ZM56.69 214.56L56.69 223.91L75.82 223.91L75.82 273L86.23 273L86.23 223.91L105.35 223.91L105.35 214.56L56.69 214.56ZM113 214.56L113 273L123.42 273L123.42 214.56L113 214.56ZM153.48 214.56L131.49 273L141.69 273L147.53 257.59L169.1 257.59L175.05 273L185.57 273L163.58 214.56L153.48 214.56ZM165.7 248.24L150.83 248.24L158.27 226.36L165.7 248.24ZM193.65 214.56L193.65 273L204.06 273L204.06 229.54L232.22 273L244.86 273L244.86 214.56L234.34 214.56L234.34 257.91L206.08 214.56L193.65 214.56ZM280.35 223.81Q284.07 223.81 287.47 224.66Q290.97 225.4 295.01 226.99L298.41 217.54L297.24 217.11Q293.52 215.84 289.59 214.99Q285.66 214.03 280.03 214.03Q273.44 214.03 268.45 216.16Q263.45 218.28 260.8 222Q258.14 225.72 258.14 230.5Q258.14 235.92 260.9 239.43Q263.67 242.82 267.6 244.63Q271.53 246.44 277.58 248.35Q283.96 250.26 286.83 251.96Q289.7 253.56 289.59 256.74Q289.59 260.04 286.08 262.06Q282.58 263.97 276.84 263.97Q270.57 263.97 260.9 260.36L259.31 259.72L255.8 269.18L257.18 269.81Q262.71 271.94 266.85 273Q271 273.96 275.99 273.96Q284.49 273.96 289.91 271.51Q295.43 268.96 297.88 265.14Q300.32 261.21 300.32 256.74Q300.32 251.32 297.45 247.82Q294.58 244.31 290.55 242.51Q286.62 240.7 280.45 238.79Q274.4 236.88 271.53 235.28Q268.77 233.69 268.77 230.93Q268.77 227.63 271.85 225.72Q274.93 223.81 280.35 223.81ZM363.33 214.03Q353.98 214.03 346.86 217.96Q339.85 221.79 336.02 228.59Q332.2 235.28 332.2 243.78Q332.2 252.07 335.81 258.98Q339.53 265.88 346.43 269.92Q353.45 273.96 362.8 273.96Q367.26 273.96 371.4 273Q375.55 272.04 380.65 270.02L382.13 269.39L378.73 260.99L377.25 261.63Q369.81 264.39 364.6 264.39Q354.4 264.39 348.56 258.76Q342.82 253.03 342.82 243.68Q342.82 238.04 345.27 233.37Q347.71 228.69 352.28 226.04Q356.95 223.28 363.12 223.28Q366.3 223.28 369.17 223.7Q372.04 224.02 376.29 225.61L377.88 226.14L381.39 217.96L379.69 217.32Q371.83 214.03 363.33 214.03ZM411.03 240.17Q415.39 240.17 416.88 242.51Q418.37 244.74 418.37 248.46L418.37 273L428.57 273L428.57 249.84Q428.57 242.08 425.7 236.88Q422.83 231.67 413.69 231.67Q407.74 231.67 401.37 234.32L401.37 214.56L391.17 214.56L391.17 273L401.37 273L401.37 242.4Q407.1 240.17 411.03 240.17ZM453.43 231.56Q448.12 231.56 439.83 234.32L441.42 241.34Q447.05 239.21 451.83 239.21Q457.47 239.21 459.38 241.13Q461.29 243.04 461.29 248.35L453.32 248.78Q445.14 249.2 440.68 252.6Q436.32 255.89 436.32 261.84Q436.32 267.16 440.25 270.56Q444.18 273.96 450.77 273.96Q457.89 273.96 462.67 270.13L463.84 273L471.92 273L471.92 247.93Q471.92 240.06 467.77 235.81Q463.73 231.56 453.43 231.56ZM461.72 263.97Q461.18 264.29 459.8 265.03Q458.42 265.67 456.93 265.99Q455.45 266.31 453.32 266.31Q450.13 266.31 448.33 264.93Q446.52 263.54 446.52 261.1Q446.52 256.21 454.49 255.79L461.72 255.26L461.72 263.97ZM509.1 264.39Q504.32 265.67 501.24 265.67Q494.55 265.67 494.55 259.72L494.55 240.17L508.68 240.17L508.68 232.2L494.55 232.2L494.55 220.51L484.35 220.51L484.35 232.2L477.55 232.2L477.55 240.17L484.35 240.17L484.35 259.93Q484.35 266.52 487.22 270.24Q490.19 273.96 499.01 273.96Q501.56 273.96 504.11 273.32Q506.77 272.68 510.48 271.62L509.1 264.39Z" />
</svg>